<mxfile host="app.diagrams.net" agent="Mozilla/5.0 (Macintosh; Intel Mac OS X 10_15_7) AppleWebKit/537.36 (KHTML, like Gecko) Chrome/130.0.0.0 Safari/537.36" version="24.8.3">
  <diagram name="Page-1" id="dmjAKPwUBU0IhFwKUN1M">
    <mxGraphModel dx="1193" dy="808" grid="1" gridSize="10" guides="1" tooltips="1" connect="1" arrows="1" fold="1" page="1" pageScale="1" pageWidth="827" pageHeight="1169" math="0" shadow="0">
      <root>
        <mxCell id="0" />
        <mxCell id="1" parent="0" />
        <mxCell id="ejuhBIdE-OPRFZfz987x-1" value="start" style="ellipse;whiteSpace=wrap;html=1;" vertex="1" parent="1">
          <mxGeometry x="310" width="104" height="70" as="geometry" />
        </mxCell>
        <mxCell id="ejuhBIdE-OPRFZfz987x-2" value="" style="endArrow=none;html=1;rounded=0;exitX=0.5;exitY=0;exitDx=0;exitDy=0;" edge="1" parent="1" source="ejuhBIdE-OPRFZfz987x-3" target="ejuhBIdE-OPRFZfz987x-1">
          <mxGeometry width="50" height="50" relative="1" as="geometry">
            <mxPoint x="360" y="160" as="sourcePoint" />
            <mxPoint x="360" y="70" as="targetPoint" />
          </mxGeometry>
        </mxCell>
        <mxCell id="ejuhBIdE-OPRFZfz987x-3" value="input three sides of triangle a,b,c" style="shape=parallelogram;perimeter=parallelogramPerimeter;whiteSpace=wrap;html=1;fixedSize=1;" vertex="1" parent="1">
          <mxGeometry x="255" y="160" width="214" height="60" as="geometry" />
        </mxCell>
        <mxCell id="ejuhBIdE-OPRFZfz987x-4" value="" style="endArrow=none;html=1;rounded=0;entryX=0.5;entryY=1;entryDx=0;entryDy=0;exitX=0.5;exitY=0;exitDx=0;exitDy=0;" edge="1" parent="1" source="ejuhBIdE-OPRFZfz987x-5" target="ejuhBIdE-OPRFZfz987x-3">
          <mxGeometry width="50" height="50" relative="1" as="geometry">
            <mxPoint x="361" y="317" as="sourcePoint" />
            <mxPoint x="361" y="220" as="targetPoint" />
          </mxGeometry>
        </mxCell>
        <mxCell id="ejuhBIdE-OPRFZfz987x-7" style="edgeStyle=orthogonalEdgeStyle;rounded=0;orthogonalLoop=1;jettySize=auto;html=1;" edge="1" parent="1" source="ejuhBIdE-OPRFZfz987x-5">
          <mxGeometry relative="1" as="geometry">
            <mxPoint x="120" y="600" as="targetPoint" />
          </mxGeometry>
        </mxCell>
        <mxCell id="ejuhBIdE-OPRFZfz987x-9" style="edgeStyle=orthogonalEdgeStyle;rounded=0;orthogonalLoop=1;jettySize=auto;html=1;" edge="1" parent="1" source="ejuhBIdE-OPRFZfz987x-5">
          <mxGeometry relative="1" as="geometry">
            <mxPoint x="640" y="600" as="targetPoint" />
          </mxGeometry>
        </mxCell>
        <mxCell id="ejuhBIdE-OPRFZfz987x-5" value="if&amp;nbsp;if sideA + sideB &amp;gt; sideC and&amp;nbsp;&lt;div&gt;sideA + sideC &amp;gt; sideB and sideB + sideC &amp;gt; sideA:&lt;/div&gt;" style="rhombus;whiteSpace=wrap;html=1;" vertex="1" parent="1">
          <mxGeometry x="242" y="320" width="240" height="190" as="geometry" />
        </mxCell>
        <mxCell id="ejuhBIdE-OPRFZfz987x-8" value="Yes" style="text;html=1;align=center;verticalAlign=middle;resizable=0;points=[];autosize=1;strokeColor=none;fillColor=none;" vertex="1" parent="1">
          <mxGeometry x="120" y="388" width="40" height="30" as="geometry" />
        </mxCell>
        <mxCell id="ejuhBIdE-OPRFZfz987x-10" value="print(Triangle is Valid)" style="shape=parallelogram;perimeter=parallelogramPerimeter;whiteSpace=wrap;html=1;fixedSize=1;" vertex="1" parent="1">
          <mxGeometry x="30" y="600" width="180" height="60" as="geometry" />
        </mxCell>
        <mxCell id="ejuhBIdE-OPRFZfz987x-11" value="print(Triangle is not valid)" style="shape=parallelogram;perimeter=parallelogramPerimeter;whiteSpace=wrap;html=1;fixedSize=1;" vertex="1" parent="1">
          <mxGeometry x="540" y="600" width="180" height="60" as="geometry" />
        </mxCell>
        <mxCell id="ejuhBIdE-OPRFZfz987x-12" value="No" style="text;html=1;align=center;verticalAlign=middle;resizable=0;points=[];autosize=1;strokeColor=none;fillColor=none;" vertex="1" parent="1">
          <mxGeometry x="600" y="388" width="40" height="30" as="geometry" />
        </mxCell>
        <mxCell id="ejuhBIdE-OPRFZfz987x-14" value="" style="endArrow=none;html=1;rounded=0;" edge="1" parent="1">
          <mxGeometry width="50" height="50" relative="1" as="geometry">
            <mxPoint x="120" y="800" as="sourcePoint" />
            <mxPoint x="120" y="660" as="targetPoint" />
          </mxGeometry>
        </mxCell>
        <mxCell id="ejuhBIdE-OPRFZfz987x-15" value="" style="endArrow=none;html=1;rounded=0;entryX=0.035;entryY=0.379;entryDx=0;entryDy=0;entryPerimeter=0;" edge="1" parent="1" target="ejuhBIdE-OPRFZfz987x-19">
          <mxGeometry width="50" height="50" relative="1" as="geometry">
            <mxPoint x="120" y="800" as="sourcePoint" />
            <mxPoint x="310" y="800" as="targetPoint" />
          </mxGeometry>
        </mxCell>
        <mxCell id="ejuhBIdE-OPRFZfz987x-17" value="" style="endArrow=none;html=1;rounded=0;" edge="1" parent="1">
          <mxGeometry width="50" height="50" relative="1" as="geometry">
            <mxPoint x="640" y="800" as="sourcePoint" />
            <mxPoint x="640" y="660" as="targetPoint" />
          </mxGeometry>
        </mxCell>
        <mxCell id="ejuhBIdE-OPRFZfz987x-18" value="" style="endArrow=none;html=1;rounded=0;exitX=1;exitY=0.358;exitDx=0;exitDy=0;exitPerimeter=0;" edge="1" parent="1" source="ejuhBIdE-OPRFZfz987x-19">
          <mxGeometry width="50" height="50" relative="1" as="geometry">
            <mxPoint x="440" y="800" as="sourcePoint" />
            <mxPoint x="640" y="800" as="targetPoint" />
          </mxGeometry>
        </mxCell>
        <mxCell id="ejuhBIdE-OPRFZfz987x-19" value="connector" style="ellipse;whiteSpace=wrap;html=1;" vertex="1" parent="1">
          <mxGeometry x="310" y="770" width="120" height="80" as="geometry" />
        </mxCell>
        <mxCell id="ejuhBIdE-OPRFZfz987x-20" value="" style="endArrow=none;html=1;rounded=0;" edge="1" parent="1">
          <mxGeometry width="50" height="50" relative="1" as="geometry">
            <mxPoint x="370" y="920" as="sourcePoint" />
            <mxPoint x="370" y="850" as="targetPoint" />
          </mxGeometry>
        </mxCell>
        <mxCell id="ejuhBIdE-OPRFZfz987x-21" value="stop" style="ellipse;whiteSpace=wrap;html=1;" vertex="1" parent="1">
          <mxGeometry x="310" y="920" width="120" height="80" as="geometry" />
        </mxCell>
      </root>
    </mxGraphModel>
  </diagram>
</mxfile>
